<svg width="575" height="36" viewBox="0 0 575 36" fill="none" xmlns="http://www.w3.org/2000/svg">
<path d="M90.0984 26.6922C88.1499 25.6157 86.5365 24.0486 85.4283 22.1559C84.3022 20.2026 83.7109 18.0013 83.7109 15.7627C83.7109 13.524 84.3022 11.3228 85.4283 9.36946C86.5365 7.47678 88.1499 5.9096 90.0984 4.83316C92.0624 3.73473 94.2923 3.16473 96.5584 3.18189C98.3153 3.17397 100.057 3.49338 101.69 4.12281C103.209 4.69389 104.568 5.60557 105.655 6.78352L103.544 8.83359C102.735 7.8763 101.692 7.13085 100.51 6.66513C99.2548 6.15483 97.9063 5.89625 96.5456 5.90492C94.8409 5.90395 93.1652 6.33341 91.6829 7.15116C90.1721 7.96763 88.9156 9.16442 88.0456 10.6157C87.1494 12.1983 86.6794 13.9752 86.6794 15.7814C86.6794 17.5876 87.1494 19.3645 88.0456 20.947C88.9156 22.3983 90.1721 23.5951 91.6829 24.4116C93.5712 25.5036 95.7836 25.9446 97.962 25.663C100.14 25.3814 102.157 24.3937 103.686 22.86C104.31 22.19 104.803 21.415 105.142 20.5732C105.512 19.6357 105.729 18.6474 105.783 17.6445H96.629V14.99H108.542C108.652 15.5655 108.71 16.1493 108.715 16.7347C108.716 18.2048 108.471 19.6653 107.99 21.0592C107.514 22.442 106.72 23.7013 105.668 24.7418C103.333 27.1429 100.296 28.3434 96.5584 28.3434C94.2923 28.3606 92.0624 27.7906 90.0984 26.6922Z" fill="#D9D9D9"/>
<path d="M115.191 27.1892C113.863 26.4256 112.779 25.319 112.06 23.9927C111.318 22.5936 110.931 21.0426 110.931 19.4688C110.931 17.895 111.318 16.344 112.06 14.9449C112.779 13.6186 113.863 12.512 115.191 11.7483C116.578 10.9883 118.143 10.589 119.736 10.589C121.328 10.589 122.894 10.9883 124.281 11.7483C125.618 12.5084 126.711 13.6153 127.437 14.9449C128.175 16.3452 128.56 17.8957 128.56 19.4688C128.56 21.0419 128.175 22.5924 127.437 23.9927C126.711 25.3223 125.618 26.4292 124.281 27.1892C122.894 27.9493 121.328 28.3486 119.736 28.3486C118.143 28.3486 116.578 27.9493 115.191 27.1892ZM122.638 24.9834C123.552 24.4551 124.299 23.6945 124.8 22.7838C125.336 21.7562 125.615 20.6206 125.615 19.4688C125.615 18.317 125.336 17.1814 124.8 16.1538C124.302 15.2412 123.554 14.48 122.638 13.9542C121.766 13.4469 120.768 13.1789 119.752 13.1789C118.735 13.1789 117.737 13.4469 116.865 13.9542C115.952 14.4825 115.204 15.2431 114.703 16.1538C114.167 17.1814 113.888 18.317 113.888 19.4688C113.888 20.6206 114.167 21.7562 114.703 22.7838C115.206 23.6932 115.953 24.4534 116.865 24.9834C117.739 25.4869 118.736 25.7525 119.752 25.7525C120.768 25.7525 121.765 25.4869 122.638 24.9834Z" fill="#D9D9D9"/>
<path d="M134.817 27.1892C133.486 26.4284 132.402 25.3211 131.686 23.9927C130.944 22.5936 130.557 21.0426 130.557 19.4688C130.557 17.895 130.944 16.344 131.686 14.9449C132.402 13.6165 133.486 12.5091 134.817 11.7483C136.204 10.9883 137.769 10.589 139.362 10.589C140.954 10.589 142.52 10.9883 143.907 11.7483C145.244 12.5067 146.335 13.6142 147.056 14.9449C147.799 16.344 148.186 17.895 148.186 19.4688C148.186 21.0426 147.799 22.5936 147.056 23.9927C146.335 25.3234 145.244 26.4309 143.907 27.1892C142.52 27.9493 140.954 28.3486 139.362 28.3486C137.769 28.3486 136.204 27.9493 134.817 27.1892ZM142.264 24.9834C143.176 24.4534 143.923 23.6932 144.426 22.7838C144.962 21.7562 145.241 20.6206 145.241 19.4688C145.241 18.317 144.962 17.1814 144.426 16.1538C143.925 15.2431 143.178 14.4825 142.264 13.9542C141.385 13.4424 140.378 13.1731 139.352 13.1753C138.339 13.1765 137.345 13.4457 136.478 13.9542C135.563 14.48 134.814 15.2412 134.316 16.1538C133.781 17.1814 133.502 18.317 133.502 19.4688C133.502 20.6206 133.781 21.7562 134.316 22.7838C134.817 23.6945 135.565 24.4551 136.478 24.9834C137.346 25.49 138.339 25.7571 139.352 25.7561C140.377 25.7604 141.384 25.4933 142.264 24.9834Z" fill="#D9D9D9"/>
<path d="M153.632 34.1689C152.416 33.3329 151.488 32.1603 150.969 30.804L153.702 29.6949C154.039 30.669 154.689 31.5122 155.556 32.1001C156.484 32.7285 157.595 33.0518 158.725 33.0223C159.499 33.0704 160.274 32.958 161 32.6926C161.725 32.4273 162.385 32.015 162.934 31.4832C163.976 30.2828 164.502 28.7386 164.403 27.1712V25.3891H164.261C163.665 26.2816 162.844 27.011 161.875 27.5077C160.791 28.08 159.574 28.3698 158.34 28.3489C156.906 28.3517 155.501 27.9537 154.292 27.2024C153.027 26.4186 152 25.3218 151.316 24.0245C150.586 22.6096 150.206 21.0489 150.206 19.4664C150.206 17.8838 150.586 16.3231 151.316 14.9083C152.002 13.614 153.029 12.5195 154.292 11.7366C155.499 10.9823 156.905 10.5841 158.34 10.59C159.574 10.5692 160.791 10.859 161.875 11.4313C162.844 11.928 163.665 12.6573 164.261 13.5499H164.403V11.1259H167.2V27.1401C167.253 28.7642 166.873 30.3742 166.096 31.8135C165.406 33.0428 164.348 34.04 163.062 34.6736C161.71 35.3138 160.222 35.6362 158.719 35.6145C156.904 35.6897 155.113 35.1816 153.625 34.1689H153.632ZM161.593 24.9966C162.471 24.4649 163.182 23.7109 163.652 22.8156C164.192 21.7798 164.458 20.6301 164.428 19.4695C164.457 18.3031 164.19 17.1477 163.652 16.1047C163.19 15.2043 162.476 14.4486 161.593 13.9237C160.745 13.4301 159.775 13.1693 158.786 13.1693C157.798 13.1693 156.828 13.4301 155.98 13.9237C155.105 14.4585 154.393 15.2117 153.92 16.1047C153.409 17.1514 153.144 18.2954 153.144 19.4539C153.144 20.6124 153.409 21.7565 153.92 22.8032C154.39 23.6984 155.102 24.4524 155.98 24.9841C156.826 25.4817 157.797 25.7448 158.786 25.7448C159.776 25.7448 160.746 25.4817 161.593 24.9841" fill="#D9D9D9"/>
<path d="M174.088 3.72278H171.144V27.8064H174.088V3.72278Z" fill="#D9D9D9"/>
<path d="M181.074 27.2012C179.77 26.4449 178.708 25.351 178.008 24.042C177.253 22.6304 176.871 21.0587 176.898 19.4683C176.881 17.9227 177.237 16.3949 177.937 15.0067C178.6 13.6862 179.626 12.5692 180.901 11.779C182.222 10.9749 183.755 10.5614 185.314 10.5888C186.85 10.5565 188.365 10.9337 189.696 11.6793C190.95 12.4058 191.955 13.4769 192.583 14.7575C193.279 16.1855 193.624 17.7514 193.59 19.3312C193.599 19.5576 193.575 19.7842 193.519 20.0042H179.874C179.882 21.1266 180.206 22.2255 180.811 23.1821C181.342 24.0028 182.088 24.6717 182.973 25.12C183.806 25.5303 184.727 25.7438 185.661 25.7431C187.829 25.7431 189.503 24.7046 190.684 22.6275L193.282 23.8737C192.562 25.1929 191.507 26.3107 190.215 27.1202C188.809 27.9711 187.176 28.4042 185.52 28.3664C183.957 28.3933 182.417 27.9962 181.074 27.2199V27.2012ZM190.472 17.6176C190.419 16.9133 190.221 16.2267 189.888 15.5987C189.501 14.888 188.92 14.2949 188.208 13.8851C187.309 13.3807 186.281 13.1344 185.244 13.1748C184.008 13.1537 182.809 13.5878 181.889 14.3899C180.919 15.2287 180.281 16.3704 180.086 17.6176H190.472Z" fill="#D9D9D9"/>
<path d="M204.853 3.72656H212.371C214.685 3.67251 216.973 4.1983 219.017 5.25321C220.865 6.23137 222.38 7.70992 223.379 9.50911C224.383 11.4504 224.906 13.5928 224.906 15.7652C224.906 17.9377 224.383 20.08 223.379 22.0214C222.382 23.8218 220.866 25.3008 219.017 26.2772C216.974 27.3343 214.685 27.8622 212.371 27.8101H204.853V3.72656ZM212.371 25.0933C215.301 25.0933 217.621 24.275 219.331 22.6382C221.042 21.0015 221.897 18.7167 221.897 15.7839C221.897 12.849 221.044 10.556 219.331 8.92961C217.619 7.30327 215.303 6.47452 212.371 6.47452H207.797V25.0933H212.371Z" fill="#D9D9D9"/>
<path d="M231.576 27.2013C230.273 26.4431 229.212 25.3497 228.51 24.042C227.755 22.6305 227.373 21.0587 227.4 19.4684C227.383 17.9228 227.739 16.395 228.439 15.0068C229.102 13.6863 230.128 12.5693 231.403 11.7791C232.724 10.9756 234.257 10.5622 235.816 10.5889C237.352 10.556 238.868 10.9332 240.198 11.6794C241.452 12.4075 242.458 13.478 243.091 14.7576C243.782 16.1871 244.125 17.7522 244.092 19.3313C244.104 19.5578 244.081 19.7849 244.021 20.0042H230.383C230.389 21.1261 230.711 22.2249 231.313 23.1821C231.845 24.0045 232.593 24.6737 233.481 25.12C234.312 25.5309 235.231 25.7445 236.163 25.7432C238.331 25.7432 240.005 24.7046 241.186 22.6276L243.752 23.8738C243.034 25.1941 241.978 26.3123 240.685 27.1203C239.302 27.9101 237.73 28.3333 236.126 28.3476C234.521 28.3618 232.941 27.9665 231.544 27.2013H231.576ZM240.948 17.6177C240.896 16.9134 240.697 16.2267 240.365 15.5988C239.981 14.8855 239.399 14.2916 238.684 13.8852C237.785 13.3808 236.757 13.1344 235.72 13.1748C234.484 13.155 233.286 13.5889 232.365 14.3899C231.397 15.2304 230.76 16.3713 230.562 17.6177H240.948Z" fill="#D9D9D9"/>
<path d="M244.796 11.1198H247.984L253.244 24.442H253.315L258.652 11.1198H261.77L254.739 27.8069H251.756L244.796 11.1198Z" fill="#D9D9D9"/>
<path d="M267.136 27.2013C265.834 26.4431 264.773 25.3497 264.07 24.042C263.315 22.6305 262.934 21.0587 262.96 19.4683C262.944 17.9228 263.3 16.395 263.999 15.0068C264.663 13.6863 265.688 12.5693 266.963 11.7791C268.284 10.975 269.818 10.5614 271.377 10.5889C272.913 10.556 274.428 10.9332 275.758 11.6794C277.013 12.4075 278.019 13.478 278.652 14.7576C279.343 16.1871 279.685 17.7522 279.652 19.3313C279.665 19.5578 279.641 19.7848 279.582 20.0042H265.963C265.971 21.1267 266.295 22.2256 266.899 23.1821C267.427 23.9921 268.166 24.652 269.042 25.0951C269.872 25.506 270.791 25.7196 271.723 25.7182C273.892 25.7182 275.566 24.6797 276.746 22.6026L279.344 23.8489C278.625 25.168 277.569 26.2858 276.278 27.0953C274.895 27.8852 273.323 28.3084 271.718 28.3226C270.114 28.3368 268.534 27.9416 267.136 27.1763V27.2013ZM276.535 17.6177C276.482 16.9134 276.283 16.2267 275.951 15.5988C275.575 14.8887 275.005 14.2934 274.302 13.879C273.403 13.3745 272.376 13.1282 271.338 13.1686C270.102 13.1487 268.904 13.5827 267.983 14.3837C267.015 15.2241 266.378 16.3651 266.181 17.6114L276.535 17.6177Z" fill="#D9D9D9"/>
<path d="M285.599 3.72278H282.654V27.8064H285.599V3.72278Z" fill="#D9D9D9"/>
<path d="M292.65 27.1892C291.322 26.4256 290.238 25.319 289.519 23.9927C288.777 22.5936 288.39 21.0426 288.39 19.4688C288.39 17.895 288.777 16.344 289.519 14.9449C290.238 13.6186 291.322 12.512 292.65 11.7483C294.037 10.9883 295.602 10.589 297.195 10.589C298.787 10.589 300.353 10.9883 301.74 11.7483C303.077 12.5084 304.17 13.6153 304.896 14.9449C305.634 16.3452 306.019 17.8957 306.019 19.4688C306.019 21.0419 305.634 22.5924 304.896 23.9927C304.17 25.3223 303.077 26.4292 301.74 27.1892C300.353 27.9493 298.787 28.3486 297.195 28.3486C295.602 28.3486 294.037 27.9493 292.65 27.1892ZM300.097 24.9834C301.011 24.4551 301.758 23.6945 302.259 22.7838C302.795 21.7562 303.074 20.6206 303.074 19.4688C303.074 18.317 302.795 17.1814 302.259 16.1538C301.761 15.2412 301.013 14.48 300.097 13.9542C299.225 13.4469 298.227 13.1789 297.211 13.1789C296.194 13.1789 295.196 13.4469 294.324 13.9542C293.411 14.4825 292.663 15.2431 292.162 16.1538C291.627 17.1814 291.347 18.317 291.347 19.4688C291.347 20.6206 291.627 21.7562 292.162 22.7838C292.665 23.6932 293.412 24.4534 294.324 24.9834C295.198 25.4869 296.195 25.7525 297.211 25.7525C298.227 25.7525 299.224 25.4869 300.097 24.9834Z" fill="#D9D9D9"/>
<path d="M308.666 11.125H311.501V13.5801H311.643C312.241 12.6848 313.062 11.9499 314.029 11.4428C315.134 10.8584 316.377 10.5641 317.634 10.5891C319.081 10.5812 320.5 10.984 321.714 11.7481C322.979 12.5347 324.007 13.6307 324.697 14.926C325.423 16.3366 325.801 17.8918 325.801 19.4686C325.801 21.0454 325.423 22.6006 324.697 24.0111C324.007 25.3064 322.979 26.4024 321.714 27.189C320.5 27.9531 319.081 28.356 317.634 28.348C316.37 28.3723 315.12 28.0759 314.01 27.4881C313.035 26.9837 312.218 26.2349 311.643 25.3196H311.501L311.643 27.6439V35.0652H308.698L308.666 11.125ZM319.969 24.9832C320.855 24.4473 321.574 23.6868 322.048 22.7836C322.563 21.7501 322.83 20.6168 322.83 19.4686C322.83 18.3204 322.563 17.187 322.048 16.1536C321.576 15.2492 320.857 14.4883 319.969 13.954C319.123 13.4405 318.144 13.1704 317.147 13.1751C316.152 13.1708 315.175 13.4339 314.324 13.9353C313.436 14.463 312.716 15.2202 312.246 16.1224C311.734 17.1647 311.469 18.3047 311.469 19.4592C311.469 20.6137 311.734 21.7537 312.246 22.796C312.712 23.7058 313.432 24.4701 314.324 25.0019C315.175 25.5014 316.152 25.7623 317.147 25.7558C318.144 25.7627 319.123 25.4948 319.969 24.9832Z" fill="#D9D9D9"/>
<path d="M332.69 27.2013C331.388 26.4431 330.326 25.3497 329.624 24.042C328.869 22.6305 328.488 21.0587 328.514 19.4684C328.498 17.9228 328.853 16.395 329.553 15.0068C330.216 13.6863 331.242 12.5693 332.517 11.7791C333.838 10.9756 335.372 10.5622 336.931 10.5889C338.466 10.556 339.982 10.9332 341.312 11.6794C342.566 12.4075 343.573 13.478 344.205 14.7576C344.896 16.1871 345.239 17.7522 345.206 19.3313C345.217 19.5574 345.195 19.7839 345.142 20.0042H331.471C331.477 21.1261 331.799 22.2249 332.401 23.1821C332.933 24.0045 333.682 24.6737 334.57 25.12C335.4 25.5309 336.319 25.7445 337.251 25.7432C339.426 25.7432 341.1 24.715 342.274 22.6276L344.84 23.8738C344.123 25.1941 343.066 26.3123 341.774 27.1203C340.391 27.9101 338.819 28.3333 337.214 28.3476C335.61 28.3618 334.03 27.9665 332.632 27.2013H332.69ZM342.069 17.6177C342.011 16.9136 341.81 16.2275 341.479 15.5988C341.094 14.8869 340.511 14.2935 339.798 13.8852C338.9 13.3801 337.872 13.1337 336.834 13.1748C335.598 13.155 334.4 13.5889 333.479 14.3899C332.511 15.2304 331.874 16.3713 331.677 17.6177H342.069Z" fill="#D9D9D9"/>
<path d="M348.151 11.1234H350.961V13.8776H351.096C351.468 12.9056 352.172 12.0873 353.091 11.5596C353.973 10.9679 355.015 10.6408 356.087 10.6187C356.771 10.6143 357.451 10.7282 358.095 10.9551V14.0147C357.344 13.6496 356.509 13.476 355.67 13.5099C354.858 13.5111 354.066 13.7524 353.399 14.2016C352.691 14.668 352.115 15.3002 351.725 16.0398C351.301 16.806 351.081 17.6626 351.083 18.5323V27.8354H348.139L348.151 11.1234Z" fill="#D9D9D9"/>
<path d="M371.004 27.5824C369.822 27.0688 368.77 26.3119 367.919 25.3641C367.005 24.3419 366.346 23.1285 365.994 21.8185L368.798 20.7031C369.141 22.0675 369.902 23.299 370.979 24.2362C371.988 25.1379 373.315 25.6306 374.687 25.6133C376.005 25.6544 377.299 25.2589 378.356 24.4917C378.837 24.1295 379.223 23.6616 379.481 23.1265C379.74 22.5914 379.864 22.0043 379.844 21.4135C379.855 20.8878 379.746 20.3663 379.524 19.8867C379.302 19.4071 378.973 18.9815 378.561 18.6406C377.327 17.7139 375.923 17.0225 374.424 16.603L372.865 16.0609C371.281 15.5555 369.819 14.7437 368.567 13.6743C368.003 13.1468 367.563 12.5076 367.276 11.8001C366.989 11.0926 366.863 10.3334 366.905 9.57423C366.902 8.44295 367.241 7.33566 367.88 6.39008C368.548 5.39668 369.473 4.59094 370.562 4.05338C371.753 3.46299 373.074 3.16356 374.411 3.18101C375.707 3.15181 376.991 3.41635 378.164 3.95368C379.145 4.39487 380.019 5.03182 380.73 5.82303C381.301 6.46102 381.737 7.20213 382.013 8.00395L379.28 9.15051C378.972 8.16053 378.33 7.30005 377.457 6.70774C376.584 6.11542 375.531 5.82574 374.468 5.88535C373.29 5.85495 372.137 6.2252 371.21 6.93219C370.787 7.23443 370.445 7.62993 370.21 8.08605C369.976 8.54216 369.857 9.04585 369.862 9.55553C369.852 10 369.951 10.4405 370.149 10.8412C370.347 11.2418 370.64 11.5913 371.004 11.8611C372.056 12.5986 373.227 13.1609 374.468 13.5248L376.059 14.0607C377.884 14.6434 379.563 15.5876 380.993 16.8336C381.597 17.426 382.068 18.1343 382.375 18.9131C382.682 19.692 382.818 20.5244 382.776 21.3574C382.824 22.7566 382.391 24.1314 381.544 25.2644C380.752 26.3005 379.679 27.1029 378.446 27.5824C377.224 28.0692 375.917 28.321 374.597 28.3239C373.349 28.3234 372.115 28.0643 370.979 27.5637" fill="#D9D9D9"/>
<path d="M389.962 28.0055C389.402 27.7949 388.89 27.4795 388.454 27.0771C387.998 26.6534 387.649 26.1331 387.434 25.5567C387.198 24.8897 387.085 24.1871 387.101 23.4817V13.7174H384.054V11.1252H387.101V6.14026H390.013V11.1252H394.26V13.7174H390.039V22.7962C389.975 23.5535 390.184 24.3089 390.629 24.9335C390.843 25.1915 391.118 25.395 391.431 25.5264C391.744 25.6578 392.085 25.7131 392.425 25.6875C393.082 25.7029 393.731 25.5412 394.299 25.2202V27.9744C393.956 28.1024 393.602 28.1984 393.24 28.261C392.799 28.3258 392.352 28.355 391.906 28.3482C391.248 28.3539 390.594 28.2376 389.981 28.0055" fill="#D9D9D9"/>
<path d="M398.844 26.5606C397.747 25.3705 397.195 23.7255 397.195 21.6131V11.1198H400.14V21.1458C400.14 24.2198 401.56 25.7548 404.399 25.7506C405.318 25.766 406.217 25.4952 406.965 24.9779C407.712 24.4613 408.309 23.7658 408.697 22.959C409.096 22.1387 409.302 21.2427 409.301 20.3357V11.1198H412.213V27.8069H409.442V25.3144H409.301C408.741 26.2166 407.946 26.9601 406.997 27.4704C405.997 28.044 404.856 28.3453 403.694 28.3428C401.555 28.3428 399.945 27.7487 398.863 26.5606" fill="#D9D9D9"/>
<path d="M419.103 27.2019C417.837 26.4196 416.809 25.3223 416.126 24.024C415.397 22.6091 415.017 21.0484 415.017 19.4659C415.017 17.8833 415.397 16.3226 416.126 14.9078C416.812 13.6119 417.839 12.5154 419.103 11.7298C420.325 10.9774 421.743 10.5816 423.189 10.5895C424.446 10.5708 425.688 10.8647 426.795 11.4432C427.77 11.9397 428.593 12.6769 429.181 13.5805H429.322L429.181 11.2937V3.72278H432.113V27.8126H429.348V25.3201H429.207C428.626 26.2375 427.801 26.9864 426.82 27.4885C425.715 28.0719 424.473 28.3681 423.215 28.3484C421.768 28.357 420.348 27.9588 419.129 27.2019H419.103ZM426.487 25.0023C427.379 24.4706 428.099 23.7063 428.565 22.7965C429.08 21.7553 429.348 20.6149 429.348 19.4596C429.348 18.3044 429.08 17.164 428.565 16.1228C428.095 15.2207 427.375 14.4634 426.487 13.9357C425.636 13.4337 424.659 13.1706 423.664 13.1755C422.666 13.1719 421.688 13.4418 420.842 13.9544C419.955 14.4871 419.237 15.2486 418.769 16.154C418.254 17.1864 417.987 18.3187 417.987 19.4659C417.987 20.6131 418.254 21.7454 418.769 22.7778C419.237 23.6849 419.954 24.4484 420.842 24.9836C421.689 25.4943 422.667 25.7621 423.664 25.7563C424.659 25.7634 425.636 25.5024 426.487 25.0023Z" fill="#D9D9D9"/>
<path d="M439.116 27.2012C437.812 26.4449 436.75 25.351 436.05 24.042C435.295 22.6304 434.913 21.0587 434.94 19.4683C434.923 17.9227 435.279 16.3949 435.979 15.0067C436.642 13.6862 437.668 12.5692 438.943 11.779C440.264 10.9749 441.797 10.5614 443.356 10.5888C444.892 10.5565 446.407 10.9337 447.738 11.6793C448.992 12.4058 449.997 13.4769 450.625 14.7575C451.321 16.1855 451.666 17.7514 451.632 19.3312C451.641 19.5576 451.617 19.7842 451.561 20.0042H437.897C437.905 21.1266 438.229 22.2255 438.834 23.1821C439.365 24.0028 440.111 24.6717 440.996 25.12C441.829 25.5303 442.75 25.7438 443.683 25.7431C445.852 25.7431 447.526 24.7046 448.706 22.6275L451.272 23.8737C450.553 25.1929 449.497 26.3107 448.206 27.1202C446.799 27.9711 445.167 28.4042 443.51 28.3664C441.947 28.3933 440.408 27.9962 439.065 27.2199L439.116 27.2012ZM448.514 17.6176C448.461 16.9133 448.263 16.2267 447.93 15.5987C447.541 14.884 446.954 14.2886 446.237 13.8789C445.338 13.3745 444.31 13.1281 443.273 13.1685C442.037 13.1474 440.838 13.5815 439.918 14.3836C438.948 15.2224 438.31 16.3642 438.115 17.6114L448.514 17.6176Z" fill="#D9D9D9"/>
<path d="M454.594 11.1193H457.397V13.6118H457.538C458.084 12.7067 458.874 11.9634 459.822 11.462C460.831 10.8862 461.981 10.5848 463.151 10.5897C465.247 10.5897 466.844 11.1837 467.943 12.3718C469.105 13.7366 469.694 15.4766 469.592 17.2446V27.8376H466.68V17.6807C466.68 14.669 465.236 13.1652 462.35 13.1694C461.456 13.1621 460.584 13.4329 459.86 13.942C459.117 14.4577 458.527 15.1539 458.148 15.9609C457.742 16.7791 457.534 17.6762 457.538 18.5843V27.8002H454.594V11.1193Z" fill="#D9D9D9"/>
<path d="M477.266 28.0055C476.707 27.7934 476.195 27.4781 475.759 27.0771C475.302 26.6534 474.953 26.1331 474.739 25.5567C474.507 24.8885 474.396 24.1865 474.411 23.4817V13.7174H471.364V11.1252H474.411V6.14026H477.317V11.1252H481.545V13.7174H477.317V22.7963C477.256 23.5533 477.465 24.3078 477.908 24.9335C478.123 25.1916 478.399 25.3951 478.713 25.5264C479.027 25.6578 479.369 25.7131 479.71 25.6875C480.365 25.7021 481.011 25.5404 481.577 25.2202V27.9744C481.235 28.1041 480.88 28.2001 480.518 28.261C480.079 28.3256 479.635 28.3548 479.191 28.3482C478.533 28.3525 477.88 28.2363 477.266 28.0055Z" fill="#D9D9D9"/>
<path d="M497.302 26.6911C495.364 25.6164 493.764 24.0478 492.677 22.1548C491.574 20.1941 490.996 17.9957 490.996 15.7616C490.996 13.5274 491.574 11.329 492.677 9.36836C493.764 7.4753 495.364 5.90675 497.302 4.83205C499.281 3.72558 501.53 3.15532 503.813 3.18079C505.581 3.15482 507.333 3.50578 508.945 4.20893C510.47 4.88588 511.823 5.87918 512.91 7.1189L510.831 9.10042C510.002 8.07512 508.942 7.24804 507.733 6.68271C506.51 6.14816 505.18 5.88221 503.839 5.90381C502.115 5.89654 500.419 6.32609 498.919 7.15005C497.423 7.96657 496.185 9.16455 495.339 10.6146C494.463 12.2035 494.005 13.9779 494.005 15.7803C494.005 17.5826 494.463 19.3571 495.339 20.9459C496.185 22.396 497.423 23.594 498.919 24.4105C500.419 25.2347 502.115 25.6643 503.839 25.6567C505.319 25.666 506.782 25.3469 508.116 24.7239C509.45 24.1008 510.62 23.1902 511.537 22.0613L513.648 24.0802C512.496 25.4183 511.055 26.4928 509.426 27.227C507.68 28.0119 505.776 28.4079 503.852 28.386C501.568 28.4114 499.32 27.8412 497.341 26.7347" fill="#D9D9D9"/>
<path d="M519.429 3.72278H516.484V27.8064H519.429V3.72278Z" fill="#D9D9D9"/>
<path d="M524.873 26.5606C523.782 25.3705 523.23 23.7255 523.23 21.6131V11.1198H526.175V21.1458C526.175 24.2198 527.595 25.7548 530.435 25.7506C531.353 25.7669 532.253 25.496 533.001 24.9779C533.749 24.463 534.346 23.767 534.733 22.959C535.134 22.1396 535.34 21.243 535.336 20.3357V11.1198H538.242V27.8069H535.477V25.3144H535.336C534.776 26.2166 533.981 26.9601 533.033 27.4704C532.03 28.0448 530.887 28.3461 529.723 28.3428C527.584 28.3428 525.974 27.7487 524.892 26.5606" fill="#D9D9D9"/>
<path d="M547.535 27.4823C546.559 26.9781 545.74 26.2294 545.162 25.3139H545.027V27.8063H542.224V3.72278H545.168V11.2875L545.027 13.5743H545.168C545.768 12.6804 546.589 11.9458 547.555 11.437C548.66 10.8542 549.902 10.5601 551.16 10.5833C552.609 10.576 554.029 10.9787 555.246 11.7423C556.507 12.5311 557.533 13.6267 558.223 14.9202C558.953 16.3295 559.333 17.8852 559.333 19.4628C559.333 21.0404 558.953 22.5961 558.223 24.0053C557.533 25.2988 556.507 26.3945 555.246 27.1832C554.029 27.9468 552.609 28.3496 551.16 28.3422C549.897 28.3657 548.65 28.0694 547.542 27.4823H547.535ZM553.533 24.9898C554.419 24.454 555.138 23.6935 555.612 22.7902C556.123 21.7556 556.388 20.6227 556.388 19.4752C556.388 18.3277 556.123 17.1949 555.612 16.1603C555.14 15.2559 554.421 14.495 553.533 13.9606C552.687 13.4481 551.708 13.1781 550.711 13.1817C549.716 13.1768 548.739 13.4399 547.888 13.9419C547 14.4696 546.28 15.2269 545.81 16.1291C545.294 17.1703 545.027 18.3107 545.027 19.4659C545.027 20.6211 545.294 21.7615 545.81 22.8027C546.276 23.7125 546.996 24.4768 547.888 25.0085C548.739 25.5086 549.716 25.7696 550.711 25.7625C551.708 25.7683 552.686 25.5005 553.533 24.9898Z" fill="#D9D9D9"/>
<path d="M563.542 27.0026C562.331 26.1752 561.404 25.0139 560.88 23.6689L563.446 22.5597C563.831 23.5323 564.5 24.3746 565.37 24.9837C566.176 25.5339 567.138 25.8278 568.123 25.8249C569.092 25.8612 570.05 25.6161 570.875 25.1207C571.193 24.9494 571.461 24.7011 571.652 24.3999C571.843 24.0986 571.951 23.7545 571.965 23.4009C571.969 23.0887 571.897 22.7801 571.756 22.4998C571.614 22.2194 571.407 21.9753 571.15 21.7871C570.309 21.2383 569.362 20.8609 568.366 20.6779L566.012 20.1046C564.792 19.8521 563.655 19.3106 562.702 18.5281C562.255 18.1553 561.9 17.6895 561.663 17.1653C561.427 16.641 561.315 16.0718 561.335 15.4998C561.312 14.5361 561.637 13.5948 562.253 12.8391C562.895 12.0774 563.737 11.4983 564.69 11.1629C565.754 10.7711 566.883 10.5766 568.02 10.5896C569.429 10.5726 570.818 10.9142 572.049 11.5804C573.215 12.1982 574.122 13.1922 574.615 14.3906L572.049 15.4624C571.715 14.6989 571.122 14.0698 570.368 13.6803C569.592 13.2952 568.731 13.1005 567.859 13.1132C567.001 13.0975 566.155 13.3132 565.415 13.7363C565.095 13.8859 564.823 14.1188 564.631 14.4092C564.438 14.6996 564.332 15.0361 564.325 15.3814C564.315 15.6513 564.376 15.9193 564.5 16.1609C564.624 16.4025 564.809 16.6101 565.037 16.7647C565.732 17.1932 566.498 17.5011 567.301 17.6745L569.867 18.2976C571.306 18.5755 572.638 19.2331 573.716 20.1981C574.128 20.5898 574.454 21.0583 574.675 21.5755C574.895 22.0928 575.006 22.648 574.999 23.2078C575.007 24.1497 574.703 25.0691 574.133 25.8311C573.515 26.657 572.677 27.3034 571.709 27.7004C570.594 28.1639 569.392 28.3932 568.18 28.3734C566.523 28.4222 564.894 27.9502 563.536 27.0275" fill="#D9D9D9"/>
<path d="M16.2766 16.1322L27.3747 9.90101C27.996 9.55282 28.5406 9.08919 28.9774 8.53657C29.4142 7.98394 29.7347 7.35315 29.9206 6.68022C30.1064 6.00728 30.154 5.30537 30.0606 4.61457C29.9672 3.92378 29.7346 3.25762 29.3762 2.65413C29.0177 2.05064 28.5404 1.52165 27.9715 1.09734C27.4025 0.673031 26.7531 0.361731 26.0603 0.181201C25.3675 0.000671877 24.6449 -0.0455545 23.9337 0.0451791C23.2225 0.135913 22.5367 0.361817 21.9154 0.710001L2.73438 11.465L16.2766 16.1322Z" fill="#FD2B25"/>
<path d="M24.6335 32.1261C25.8382 32.1306 27.0105 31.7479 27.9679 31.0377C28.9254 30.3274 29.614 29.3296 29.9266 28.1995C30.2393 27.0694 30.1583 25.8707 29.6964 24.79C29.2344 23.7093 28.4175 22.8073 27.3727 22.2247L8.19168 11.4697C7.57039 11.1215 6.88455 10.8956 6.17337 10.8048C5.46219 10.7141 4.73958 10.7603 4.04679 10.9408C3.354 11.1214 2.7046 11.4327 2.13566 11.857C1.56673 12.2813 1.08941 12.8103 0.730957 13.4138C0.372499 14.0173 0.139928 14.6834 0.0465174 15.3742C-0.0468937 16.065 0.000677135 16.7669 0.186534 17.4399C0.37239 18.1128 0.692877 18.7436 1.12971 19.2962C1.56654 19.8488 2.11116 20.3125 2.73246 20.6607L21.9135 31.4157C22.7392 31.8828 23.678 32.128 24.6335 32.1261Z" fill="#1F86FB"/>
<path d="M43.6989 32.1245C44.6564 32.1257 45.597 31.8806 46.4253 31.4141L65.6064 20.6591L52.231 15.9047L40.9597 22.2231C39.9199 22.8089 39.108 23.7112 38.6495 24.7905C38.1911 25.8698 38.1117 27.0657 38.4236 28.1932C38.7355 29.3208 39.4214 30.317 40.375 31.0276C41.3287 31.7383 42.4969 32.1238 43.6989 32.1245Z" fill="#FFB800"/>
<path d="M62.8952 21.3573C64.0972 21.3566 65.2654 20.9711 66.2191 20.2605C67.1728 19.5498 67.8586 18.5536 68.1706 17.4261C68.4825 16.2985 68.4031 15.1026 67.9446 14.0233C67.4862 12.9441 66.6742 12.0417 65.6345 11.4559L46.4534 0.70089C45.2015 0.0413153 43.734 -0.117569 42.3633 0.258082C40.9926 0.633732 39.827 1.51425 39.1147 2.71215C38.4023 3.91005 38.1995 5.33072 38.5493 6.67171C38.8992 8.01271 39.7741 9.16809 40.9878 9.8919L60.1688 20.6469C60.998 21.1112 61.9381 21.3562 62.8952 21.3573Z" fill="#00AA47"/>
</svg>
